<?xml version="1.0" standalone="no"?>
<!DOCTYPE svg PUBLIC "-//W3C//DTD SVG 20010904//EN" "http://www.w3.org/TR/2001/REC-SVG-20010904/DTD/svg10.dtd">
<svg version="1.0" xmlns="http://www.w3.org/2000/svg"
  width="512.000000pt" height="512.000000pt" viewBox="0 0 512.000000 512.000000"
  preserveAspectRatio="xMidYMid meet">
  <g transform="translate(0.000000,512.000000) scale(0.100000,-0.100000)"
    fill="#000000" stroke="none">
    <path
      d="M2350 5110 c-741 -77 -1392 -523 -1727 -1185 -99 -195 -159 -373
-205 -610 -21 -109 -22 -125 -25 -1443 -4 -1482 -8 -1384 64 -1532 49 -102
168 -222 270 -273 103 -51 204 -71 317 -64 319 20 554 256 585 586 12 131 56
181 158 181 93 0 152 -68 153 -175 2 -262 221 -524 486 -580 141 -30 280 -13
412 51 105 50 222 168 274 274 42 85 68 181 68 255 1 107 60 175 153 175 102
0 146 -50 158 -181 22 -234 148 -425 344 -522 181 -90 391 -88 568 5 93 48
215 174 260 268 72 148 68 50 64 1532 -3 1312 -4 1335 -25 1443 -87 450 -276
820 -581 1137 -328 342 -767 571 -1236 643 -121 19 -418 27 -535 15z m555
-490 c672 -144 1185 -657 1325 -1322 37 -178 41 -335 38 -1555 -3 -1171 -3
-1172 -24 -1200 -35 -47 -82 -73 -133 -73 -84 0 -151 64 -151 145 -2 144 -66
313 -160 417 -67 75 -178 148 -271 179 -98 32 -283 34 -369 5 -148 -51 -260
-133 -338 -249 -61 -92 -89 -173 -104 -299 -6 -60 -18 -109 -29 -128 -57 -93
-201 -93 -258 1 -12 20 -22 61 -26 113 -15 168 -93 329 -208 431 -64 57 -212
130 -291 144 -286 52 -565 -89 -681 -344 -39 -84 -53 -140 -62 -240 -7 -85
-27 -125 -75 -155 -68 -41 -159 -19 -212 53 -21 28 -21 29 -24 1195 -3 1214 1
1376 38 1557 129 628 602 1131 1225 1300 167 46 252 55 480 51 167 -3 231 -9
310 -26z" />
    <path
      d="M1715 3399 c-142 -20 -275 -120 -342 -257 -32 -64 -37 -85 -41 -164
-6 -111 15 -195 68 -276 195 -303 642 -273 797 53 30 64 36 90 41 163 8 146
-36 259 -138 356 -108 103 -238 145 -385 125z" />
    <path
      d="M3266 3399 c-125 -18 -270 -118 -329 -227 -71 -132 -76 -285 -14
-417 132 -277 482 -350 716 -149 105 91 157 220 149 372 -4 79 -9 100 -41 164
-91 185 -279 285 -481 257z" />
  </g>
</svg>
