<?xml version="1.0" standalone="no"?>
<!DOCTYPE svg PUBLIC "-//W3C//DTD SVG 20010904//EN" "http://www.w3.org/TR/2001/REC-SVG-20010904/DTD/svg10.dtd">
<svg version="1.0" xmlns="http://www.w3.org/2000/svg"
  width="512.000000pt" height="512.000000pt" viewBox="0 0 512.000000 512.000000"
  preserveAspectRatio="xMidYMid meet">
  <g transform="translate(0.000000,512.000000) scale(0.100000,-0.100000)"
    fill="#000000" stroke="none">
    <path
      d="M2320 4515 c-650 -80 -1226 -486 -1520 -1072 -70 -141 -107 -239
-146 -392 -189 -737 59 -1512 641 -1999 636 -533 1555 -611 2261 -191 514 307
848 796 951 1394 24 139 24 471 0 610 -38 215 -97 399 -189 580 -375 743
-1174 1171 -1998 1070z m501 -606 c176 -35 402 -125 381 -152 -123 -156 -173
-270 -192 -433 -34 -306 131 -603 415 -747 99 -50 191 -71 310 -72 61 0 129 3
153 8 l42 7 0 -48 c0 -134 -63 -368 -140 -524 -136 -271 -368 -501 -636 -628
-318 -152 -684 -177 -1016 -69 -348 113 -644 368 -807 697 -78 155 -141 390
-141 524 l0 48 43 -7 c89 -16 258 -8 337 16 131 40 225 96 320 191 97 97 149
180 186 295 84 264 34 498 -158 742 -19 24 195 112 356 148 172 38 370 40 547
4z" />
    <path
      d="M1813 2170 c24 -305 259 -575 572 -655 90 -23 255 -24 347 -2 309 75
551 352 575 657 l6 80 -753 0 -753 0 6 -80z" />
  </g>
</svg>
