<?xml version="1.0" standalone="no"?>
<!DOCTYPE svg PUBLIC "-//W3C//DTD SVG 20010904//EN" "http://www.w3.org/TR/2001/REC-SVG-20010904/DTD/svg10.dtd">
<svg version="1.0" xmlns="http://www.w3.org/2000/svg"
  width="512.000000pt" height="512.000000pt" viewBox="0 0 512.000000 512.000000"
  preserveAspectRatio="xMidYMid meet">
  <g transform="translate(0.000000,512.000000) scale(0.100000,-0.100000)"
    fill="#000000" stroke="none">
    <path
      d="M2305 5109 c-494 -51 -966 -244 -1355 -555 -109 -87 -297 -275 -384
-384 -164 -205 -324 -487 -411 -724 -48 -130 -108 -370 -131 -521 -14 -92 -19
-178 -19 -365 0 -281 13 -392 75 -636 49 -192 93 -312 185 -499 238 -486 632
-888 1118 -1140 390 -202 813 -296 1262 -282 379 13 704 93 1040 257 136 66
297 163 388 232 l46 35 -209 208 -208 208 -79 -50 c-347 -222 -768 -329 -1195
-302 -613 38 -1183 366 -1527 878 -394 586 -447 1325 -141 1959 253 523 723
913 1281 1061 198 53 294 65 519 65 225 0 321 -12 519 -65 679 -180 1220 -717
1406 -1395 148 -541 59 -1124 -244 -1591 l-59 -92 203 -208 c197 -201 204
-207 219 -188 58 71 182 271 242 390 122 242 208 513 250 790 26 169 26 561 0
730 -68 446 -238 847 -513 1208 -160 210 -427 451 -668 602 -112 71 -338 182
-469 230 -129 48 -371 108 -516 130 -135 20 -491 28 -625 14z" />
    <path
      d="M2345 3874 c-422 -71 -782 -334 -975 -710 -84 -164 -129 -343 -137
-544 -14 -372 119 -712 382 -975 112 -112 207 -181 340 -248 205 -103 366
-140 600 -140 169 0 234 8 380 49 96 27 287 112 283 125 -2 5 -154 161 -338
346 -184 186 -384 389 -445 451 l-110 114 235 229 c129 126 238 229 242 229 3
0 207 -204 453 -452 358 -364 448 -450 456 -438 51 72 124 268 155 411 25 117
26 380 1 499 -56 263 -170 481 -349 666 -201 208 -460 342 -753 389 -110 18
-312 18 -420 -1z" />
  </g>
</svg>
