<svg width="100mm" height="100mm" version="1.1" viewBox="0 0 100 100" xml:space="preserve"
  xmlns="http://www.w3.org/2000/svg"><defs><style>.cls-1{fill:#ffffff;}.cls-2{fill:#ffc500;}.cls-3{fill:#ff9f1e;}.cls-4{fill:#ffe059;}.cls-5{fill:#00305f;}</style></defs><path d="m50 0c-27.614-2.7062e-5 -50 22.386-50 50-2.8167e-5 27.614 22.386 50 50 50 27.614 3e-5 50-22.386 50-50 3e-5 -27.614-22.386-50-50-50zm0 15c5.8395 0.02302 11.58 1.5068 16.7 4.316-3.4377 3.5296-5.3699 8.2566-5.3888 13.184-2.16e-4 10.494 8.5064 19 19 19 1.5562-0.01348 3.1048-0.2181 4.6111-0.60926-0.48254 18.951-15.965 34.073-34.922 34.109-18.957-0.036159-34.439-15.158-34.922-34.109 1.5063 0.39116 3.0549 0.59578 4.6111 0.60926 10.494-7e-5 19-8.5069 19-19-0.01893-4.927-1.9511-9.6541-5.3888-13.184 5.1194-2.8093 10.86-4.293 16.7-4.316zm-19.1 42.95a19.1 19.1 0 0 0 9.5503 16.541 19.1 19.1 0 0 0 19.1 0 19.1 19.1 0 0 0 9.5503-16.541h-19.1-19.1z" fill="#1a1a1a" style="paint-order:fill markers stroke"/></svg>
